<?xml version="1.0" standalone="no"?>
<!DOCTYPE svg PUBLIC "-//W3C//DTD SVG 20010904//EN"
 "http://www.w3.org/TR/2001/REC-SVG-20010904/DTD/svg10.dtd">
<svg version="1.0" xmlns="http://www.w3.org/2000/svg"
 width="4975.000000pt" height="4975.000000pt" viewBox="0 0 4975.000000 4975.000000"
 preserveAspectRatio="xMidYMid meet">

<g transform="translate(0.000000,4975.000000) scale(0.100000,-0.100000)"
fill="#000000" stroke="none">
<path d="M14843 35580 c8 -19 58 -138 112 -265 161 -383 481 -1162 683 -1665
1006 -2509 1861 -4890 2423 -6745 55 -181 127 -418 160 -526 146 -482 197
-857 186 -1369 -12 -573 -121 -1112 -334 -1655 -74 -189 -261 -567 -368 -745
-441 -731 -1047 -1337 -1760 -1758 -310 -183 -782 -375 -1510 -615 -2141 -706
-5305 -1250 -8650 -1486 -256 -18 -258 -19 -130 -21 611 -8 20188 -24 24790
-19 5155 6 8334 2 12535 -15 l1135 -4 -150 19 c-3443 438 -6595 974 -8985
1529 -748 173 -843 197 -995 248 -858 287 -1664 882 -2230 1647 -595 802 -936
1725 -1004 2713 -29 412 -11 639 105 1322 214 1263 670 2837 1330 4591 504
1339 1156 2850 1808 4184 81 165 143 295 138 290 -8 -9 -1611 -2777 -1651
-2850 -9 -16 -21 -37 -27 -45 -6 -8 -25 -40 -41 -70 -17 -30 -40 -71 -51 -90
-24 -40 -36 -61 -82 -145 -18 -33 -38 -67 -44 -75 -13 -17 -27 -42 -69 -120
-16 -30 -36 -62 -43 -71 -8 -8 -14 -18 -14 -22 0 -3 -534 -927 -1187 -2054
-652 -1126 -2221 -3834 -3486 -6018 -1264 -2183 -2398 -4141 -2520 -4350 -121
-209 -249 -429 -283 -488 -61 -106 -63 -108 -77 -85 -8 13 -259 446 -558 963
-298 517 -907 1570 -1352 2340 -445 770 -1350 2335 -2010 3477 -667 1154
-1205 2074 -1210 2071 -6 -4 -8 0 -4 10 3 9 2 16 -3 14 -5 -1 -1037 1793
-2294 3986 -1256 2194 -2287 3992 -2291 3995 -4 4 0 -9 8 -28z"/>
<path d="M14690 26754 c-99 -10 -292 -45 -403 -73 -161 -42 -286 -89 -462
-176 -481 -235 -857 -612 -1096 -1100 -119 -243 -191 -484 -230 -765 -20 -140
-17 -477 5 -625 140 -940 778 -1700 1675 -1995 286 -94 506 -125 834 -117 237
5 371 24 586 83 637 175 1183 615 1494 1204 170 322 260 663 274 1040 14 401
-69 785 -252 1155 -200 407 -469 713 -848 965 -297 198 -619 322 -997 386 -93
15 -480 27 -580 18z"/>
<path d="M33983 26675 c-544 -73 -1025 -305 -1412 -680 -388 -377 -630 -838
-722 -1376 -31 -181 -34 -562 -6 -739 100 -632 434 -1191 937 -1569 789 -593
1863 -649 2721 -141 676 400 1115 1084 1199 1867 18 160 8 484 -19 638 -60
345 -181 652 -369 936 -244 366 -551 636 -947 830 -232 113 -417 173 -682 220
-152 28 -543 35 -700 14z"/>
<path d="M19360 16734 c-119 -32 -216 -118 -262 -234 -19 -47 -22 -80 -26
-230 -3 -135 0 -190 12 -243 33 -141 108 -251 275 -402 127 -114 191 -188 232
-265 22 -41 24 -57 24 -183 l0 -139 -32 -29 c-42 -37 -75 -45 -120 -28 -68 26
-78 51 -81 220 l-3 149 -156 0 -155 0 4 -182 c5 -230 18 -269 117 -369 84 -84
146 -109 282 -117 185 -9 317 49 397 176 55 86 64 139 60 355 -3 166 -6 200
-25 249 -43 114 -91 177 -278 363 -227 224 -237 242 -243 414 -4 137 9 174 71
205 33 16 45 17 76 7 20 -6 48 -22 62 -37 23 -24 24 -32 27 -180 l3 -154 155
0 156 0 -4 188 c-3 180 -4 189 -31 246 -54 117 -140 189 -262 221 -73 19 -202
18 -275 -1z"/>
<path d="M21870 16736 c-165 -46 -267 -167 -291 -343 -6 -50 -9 -312 -7 -728
3 -594 5 -655 22 -705 47 -143 147 -235 295 -270 68 -16 230 -8 291 14 105 38
194 127 237 236 16 41 18 103 21 735 2 492 0 707 -8 750 -31 157 -148 279
-301 314 -60 14 -204 12 -259 -3z m183 -290 c18 -7 42 -26 52 -42 19 -28 20
-51 20 -689 0 -623 -1 -662 -18 -689 -24 -36 -80 -59 -123 -51 -20 3 -45 20
-63 41 l-31 35 0 664 0 663 27 32 c42 50 80 60 136 36z"/>
<path d="M20310 15715 l0 -995 160 0 160 0 0 425 0 426 118 -3 117 -3 3 -422
2 -423 155 0 155 0 0 995 0 995 -155 0 -155 0 -2 -422 -3 -423 -117 -3 -118
-3 0 426 0 425 -160 0 -160 0 0 -995z"/>
<path d="M22680 16691 c0 -11 50 -457 110 -991 61 -534 110 -973 110 -976 0
-2 94 -4 210 -4 209 0 210 0 215 23 2 12 34 260 70 551 36 292 67 532 69 534
6 5 10 -27 76 -553 33 -264 63 -497 66 -517 l6 -38 209 0 c115 0 209 1 209 3
1 1 52 448 113 992 l113 990 -154 3 c-85 1 -156 1 -158 -1 -2 -2 -31 -302 -64
-667 -33 -365 -61 -664 -63 -666 -2 -2 -45 298 -97 666 l-95 670 -157 0 c-155
0 -158 0 -163 -22 -3 -13 -43 -300 -90 -638 -47 -338 -89 -631 -92 -650 -4
-21 -30 224 -67 635 l-61 670 -157 3 c-152 2 -158 2 -158 -17z"/>
<path d="M24520 15715 l0 -995 155 0 155 0 0 472 c0 260 4 468 8 463 5 -6 49
-124 97 -262 l88 -253 43 0 c49 0 31 -37 154 310 l79 225 1 -477 0 -478 160 0
160 0 0 995 0 995 -134 0 -133 0 -138 -392 c-76 -216 -141 -397 -145 -401 -7
-8 -35 70 -214 578 l-74 210 -131 3 -131 3 0 -996z"/>
<path d="M26156 16698 c-5 -14 -277 -1958 -276 -1970 0 -5 71 -8 158 -8 l158
0 23 203 c12 111 25 212 28 225 5 21 9 22 128 22 75 0 126 -4 130 -10 4 -6 18
-107 32 -225 l26 -215 160 0 159 0 -6 33 c-3 17 -64 455 -136 972 -71 517
-132 950 -135 963 -5 22 -5 22 -226 22 -167 0 -221 -3 -223 -12z m274 -868
c22 -184 40 -343 40 -352 0 -16 -11 -18 -90 -18 -79 0 -90 2 -90 18 -1 53 86
720 92 705 3 -10 25 -169 48 -353z"/>
<path d="M27140 15715 l0 -995 160 0 160 0 0 315 0 315 31 70 c18 39 34 68 37
65 4 -3 56 -175 118 -383 l111 -377 167 -3 c91 -1 166 0 166 3 0 3 -81 275
-180 605 -99 330 -180 604 -180 610 0 6 77 179 170 385 94 206 170 377 170
380 0 3 -78 5 -173 5 l-173 0 -130 -287 -129 -287 -3 287 -2 287 -160 0 -160
0 0 -995z"/>
<path d="M28330 15715 l0 -995 405 0 405 0 0 145 0 145 -247 2 -248 3 0 275 0
275 198 3 197 2 0 145 0 145 -197 2 -198 3 0 275 0 275 248 3 247 2 0 145 0
145 -405 0 -405 0 0 -995z"/>
<path d="M29470 15715 l0 -995 155 0 155 0 0 366 0 365 27 -3 c27 -3 30 -10
138 -363 l111 -360 167 -3 166 -2 -9 27 c-28 85 -230 754 -230 762 0 5 16 19
35 31 48 30 104 110 128 183 17 53 20 98 25 298 6 290 -4 376 -53 476 -37 76
-88 128 -160 165 -81 42 -128 48 -397 48 l-258 0 0 -995z m512 667 l33 -32 3
-252 c3 -269 0 -292 -46 -328 -20 -16 -40 -20 -108 -20 l-84 0 0 328 c0 181 3
332 8 336 4 4 42 6 84 4 72 -3 80 -5 110 -36z"/>
</g>
</svg>
